<?xml version="1.0" encoding="UTF-8" ?>
<!-- Sure Cuts A Lot -->
<!DOCTYPE svg PUBLIC "-//W3C//DTD SVG 1.1//EN" "http://www.w3.org/Graphics/SVG/1.1/DTD/svg11.dtd">
<svg version="1.1" xmlns="http://www.w3.org/2000/svg" xmlns:xlink="http://www.w3.org/1999/xlink" xmlns:scal="http://www.craftedge.com/namespaces/surecutsalot" scal:dpi="150" x="0px" y="0px" width="1800px" height="450px" viewBox="0 0 1800 450" xml:space="preserve">
<g id="ENTREMOT">
<path id="E" style="fill-rule:evenodd;fill:#000000;stroke:none;" d="M 187.31 224.01 L 157.455 224.01 L 157.455 266.919 L 191.479 266.919 L 191.479 296.921 L 144.904 296.921 L 144.904 130.041 L 189.978 130.041 L 189.978 159.591 L 157.455 159.591 L 157.455 195.027 L 187.31 195.027 L 187.31 224.01 z"/>
<path id="N" style="fill-rule:evenodd;fill:#000000;stroke:none;" d="M 251.189 296.921 L 238.346 296.921 L 213.245 178.384 L 213.245 296.921 L 201.278 296.921 L 201.278 130.041 L 214.746 130.041 L 239.222 246.54 L 239.222 130.041 L 251.189 130.041 L 251.189 296.921 z"/>
<path id="T" style="fill-rule:evenodd;fill:#000000;stroke:none;" d="M 307.812 130.041 L 307.812 159.591 L 289.424 159.591 L 289.424 296.921 L 276.498 296.921 L 276.498 159.591 L 258.027 159.591 L 258.027 130.041 L 307.812 130.041 z"/>
<path id="R" style="fill-rule:evenodd;fill:#000000;stroke:none;" d="M 341.42 231.482 L 328.16 231.482 L 328.16 296.921 L 315.61 296.921 L 315.61 130.041 L 345.756 130.041 C 350.065 130.268 353.38 131.702 355.701 134.344 C 358.022 136.985 359.989 140.872 361.601 146.005 C 362.935 150.232 363.992 154.911 364.77 160.043 C 365.548 165.176 365.937 171.025 365.937 177.592 C 365.937 185.517 365.201 193.31 363.727 200.971 C 362.254 208.632 359.822 214.047 356.431 217.217 C 359.266 220.312 361.274 224.708 362.456 230.407 C 363.637 236.105 364.228 244.804 364.228 256.503 L 364.228 267.711 C 364.228 275.334 364.339 280.504 364.561 283.222 C 364.895 287.524 365.673 290.694 366.896 292.732 L 366.896 296.921 L 352.761 296.921 C 352.372 293.222 352.094 290.241 351.927 287.977 C 351.594 283.297 351.413 278.504 351.385 273.598 L 351.302 258.088 C 351.246 247.446 350.531 240.351 349.155 236.803 C 347.779 233.256 345.2 231.482 341.42 231.482 zM 349.217 201.141 C 351.774 197.971 353.053 191.706 353.053 182.347 C 353.053 172.233 351.816 165.44 349.342 161.968 C 347.952 160.006 345.867 159.025 343.088 159.025 L 328.16 159.025 L 328.16 203.858 L 342.712 203.858 C 345.603 203.858 347.772 202.952 349.217 201.141 z"/>
<path id="E" style="fill-rule:evenodd;fill:#000000;stroke:none;" d="M 419.768 224.01 L 389.913 224.01 L 389.913 266.919 L 423.937 266.919 L 423.937 296.921 L 377.362 296.921 L 377.362 130.041 L 422.436 130.041 L 422.436 159.591 L 389.913 159.591 L 389.913 195.027 L 419.768 195.027 L 419.768 224.01 z"/>
<path id="M" style="fill-rule:evenodd;fill:#000000;stroke:none;" d="M 445.703 296.921 L 433.736 296.921 L 433.736 130.041 L 452.416 130.041 L 463.591 261.258 L 474.682 130.041 L 493.153 130.041 L 493.153 296.921 L 481.186 296.921 L 481.186 184.045 C 481.186 180.8 481.2 176.252 481.228 170.403 C 481.256 164.553 481.27 160.043 481.27 156.873 L 469.637 296.921 L 457.169 296.921 L 445.619 156.873 C 445.619 160.043 445.633 164.553 445.661 170.403 C 445.689 176.252 445.703 180.8 445.703 184.045 L 445.703 296.921 z"/>
<path id="O" style="fill-rule:evenodd;fill:#000000;stroke:none;" d="M 532.265 301.562 C 523.481 301.562 516.768 295.071 512.125 282.089 C 505.899 266.164 502.785 243.219 502.785 213.255 C 502.785 182.687 505.899 159.742 512.125 144.42 C 516.768 131.438 523.481 124.947 532.265 124.947 C 541.049 124.947 547.762 131.438 552.404 144.42 C 558.603 159.742 561.702 182.687 561.702 213.255 C 561.702 243.219 558.603 266.164 552.404 282.089 C 547.762 295.071 541.049 301.562 532.265 301.562 zM 544.398 256.729 C 547.373 246.54 548.86 232.048 548.86 213.255 C 548.86 194.536 547.366 180.064 544.378 169.837 C 541.389 159.609 537.352 154.496 532.265 154.496 C 527.178 154.496 523.119 159.591 520.089 169.78 C 517.059 179.969 515.544 194.461 515.544 213.255 C 515.544 232.048 517.059 246.54 520.089 256.729 C 523.119 266.919 527.178 272.013 532.265 272.013 C 537.352 272.013 541.396 266.919 544.398 256.729 z"/>
<path id="T" style="fill-rule:evenodd;fill:#000000;stroke:none;" d="M 616.158 130.041 L 616.158 159.591 L 597.77 159.591 L 597.77 296.921 L 584.844 296.921 L 584.844 159.591 L 566.372 159.591 L 566.372 130.041 L 616.158 130.041 z"/>
<path id="I" style="fill-rule:evenodd;fill:#000000;stroke:none;" d="M 622.663 130.041 L 635.422 130.041 L 635.422 296.921 L 622.663 296.921 L 622.663 130.041 z"/>
<path id="V" style="fill-rule:evenodd;fill:#000000;stroke:none;" d="M 642.844 130.041 L 656.562 130.041 L 669.905 256.729 L 683.373 130.041 L 696.716 130.041 L 675.742 296.921 L 663.609 296.921 L 642.844 130.041 z"/>
<path id="A" style="fill-rule:evenodd;fill:#000000;stroke:none;" d="M 740.33 262.616 L 717.689 262.616 L 713.436 296.921 L 700.01 296.921 L 721.942 130.041 L 736.452 130.041 L 758.218 296.921 L 744.291 296.921 L 740.33 262.616 zM 736.744 233.86 L 729.072 168.195 L 721.15 233.86 L 736.744 233.86 z"/>
<path id="T" style="fill-rule:evenodd;fill:#000000;stroke:none;" d="M 810.672 130.041 L 810.672 159.591 L 792.284 159.591 L 792.284 296.921 L 779.358 296.921 L 779.358 159.591 L 760.887 159.591 L 760.887 130.041 L 810.672 130.041 z"/>
<path id="O" style="fill-rule:evenodd;fill:#000000;stroke:none;" d="M 845.364 301.562 C 836.58 301.562 829.866 295.071 825.224 282.089 C 818.998 266.164 815.884 243.219 815.884 213.255 C 815.884 182.687 818.998 159.742 825.224 144.42 C 829.866 131.438 836.58 124.947 845.364 124.947 C 854.148 124.947 860.861 131.438 865.503 144.42 C 871.702 159.742 874.801 182.687 874.801 213.255 C 874.801 243.219 871.702 266.164 865.503 282.089 C 860.861 295.071 854.148 301.562 845.364 301.562 zM 857.497 256.729 C 860.472 246.54 861.959 232.048 861.959 213.255 C 861.959 194.536 860.465 180.064 857.477 169.837 C 854.488 159.609 850.451 154.496 845.364 154.496 C 840.277 154.496 836.218 159.591 833.188 169.78 C 830.158 179.969 828.643 194.461 828.643 213.255 C 828.643 232.048 830.158 246.54 833.188 256.729 C 836.218 266.919 840.277 272.013 845.364 272.013 C 850.451 272.013 854.495 266.919 857.497 256.729 z"/>
<path id="R" style="fill-rule:evenodd;fill:#000000;stroke:none;" d="M 910.702 231.482 L 897.443 231.482 L 897.443 296.921 L 884.892 296.921 L 884.892 130.041 L 915.039 130.041 C 919.347 130.268 922.662 131.702 924.983 134.344 C 927.304 136.985 929.271 140.872 930.883 146.005 C 932.217 150.232 933.274 154.911 934.052 160.043 C 934.83 165.176 935.22 171.025 935.22 177.592 C 935.22 185.517 934.483 193.31 933.01 200.971 C 931.536 208.632 929.104 214.047 925.713 217.217 C 928.548 220.312 930.557 224.708 931.738 230.407 C 932.919 236.105 933.51 244.804 933.51 256.503 L 933.51 267.711 C 933.51 275.334 933.621 280.504 933.844 283.222 C 934.177 287.524 934.956 290.694 936.179 292.732 L 936.179 296.921 L 922.044 296.921 C 921.654 293.222 921.376 290.241 921.21 287.977 C 920.876 283.297 920.695 278.504 920.668 273.598 L 920.584 258.088 C 920.529 247.446 919.813 240.351 918.437 236.803 C 917.061 233.256 914.483 231.482 910.702 231.482 zM 918.499 201.141 C 921.057 197.971 922.335 191.706 922.335 182.347 C 922.335 172.233 921.098 165.44 918.624 161.968 C 917.235 160.006 915.15 159.025 912.37 159.025 L 897.443 159.025 L 897.443 203.858 L 911.995 203.858 C 914.886 203.858 917.054 202.952 918.499 201.141 z"/>
<path id="&apos;" style="fill-rule:evenodd;fill:#000000;stroke:none;" d="M 943.893 130.041 L 955.276 130.041 L 953.191 198.99 L 945.977 198.99 L 943.893 130.041 z"/>
<path id="s" style="fill-rule:evenodd;fill:#000000;stroke:none;" d="M 996.93 179.177 C 1000.49 185.366 1002.53 196.008 1003.06 211.104 L 991.176 211.104 C 991.01 206.952 990.579 203.669 989.884 201.254 C 988.577 196.876 986.353 194.687 983.212 194.687 C 980.627 194.687 978.786 195.782 977.688 197.971 C 976.59 200.159 976.041 202.726 976.041 205.669 C 976.041 209.368 976.624 212.047 977.792 213.707 C 978.959 215.443 983.087 218.425 990.176 222.651 C 994.901 225.671 998.445 230.237 1000.81 236.351 C 1003.14 242.54 1004.31 250.276 1004.31 259.56 C 1004.31 271.787 1002.64 281.769 999.286 289.505 C 995.937 297.241 990.759 301.11 983.754 301.11 C 976.61 301.11 971.336 297.015 967.931 288.826 C 964.525 280.637 962.823 270.202 962.823 257.522 L 974.873 257.522 C 975.123 263.258 975.665 267.334 976.499 269.749 C 977.972 274.051 980.697 276.202 984.672 276.202 C 987.007 276.202 988.862 275.259 990.238 273.372 C 991.614 271.485 992.302 268.655 992.302 264.881 C 992.302 261.258 991.746 258.503 990.634 256.616 C 989.522 254.729 985.394 251.484 978.25 246.88 C 973.108 243.408 969.48 239.068 967.368 233.86 C 965.255 228.727 964.199 221.331 964.199 211.67 C 964.199 200.273 965.846 190.48 969.14 182.29 C 972.434 174.101 977.069 170.006 983.046 170.006 C 988.716 170.006 993.345 173.063 996.93 179.177 z"/>
</g>
<g id="3D">
<path id="3" style="fill-rule:evenodd;fill:#000000;stroke:none;" d="M 1371.96 144.446 C 1369.81 147.309 1368.78 151.135 1368.87 155.923 L 1351.02 155.923 C 1351.2 151.09 1352.02 146.504 1353.5 142.164 C 1355.07 138.36 1357.53 134.848 1360.88 131.626 C 1363.39 129.344 1366.37 127.599 1369.81 126.391 C 1373.26 125.183 1377.49 124.579 1382.5 124.579 C 1391.8 124.579 1399.31 126.984 1405.02 131.794 C 1410.72 136.604 1413.57 143.059 1413.57 151.158 C 1413.57 156.885 1411.87 161.718 1408.47 165.655 C 1406.32 168.116 1404.09 169.794 1401.76 170.689 C 1403.51 170.689 1406.01 172.188 1409.28 175.186 C 1414.15 179.706 1416.59 185.88 1416.59 193.711 C 1416.59 201.944 1413.74 209.182 1408.04 215.424 C 1402.33 221.666 1393.88 224.787 1382.7 224.787 C 1368.92 224.787 1359.34 220.29 1353.97 211.296 C 1351.15 206.508 1349.59 200.244 1349.27 192.503 L 1368.07 192.503 C 1368.07 196.396 1368.69 199.617 1369.95 202.168 C 1372.27 206.866 1376.5 209.215 1382.63 209.215 C 1386.39 209.215 1389.67 207.929 1392.46 205.356 C 1395.26 202.783 1396.66 199.08 1396.66 194.248 C 1396.66 187.849 1394.06 183.576 1388.87 181.428 C 1385.92 180.22 1381.27 179.616 1374.91 179.616 L 1374.91 165.924 C 1381.13 165.834 1385.47 165.23 1387.93 164.112 C 1392.18 162.232 1394.31 158.429 1394.31 152.701 C 1394.31 148.987 1393.22 145.967 1391.05 143.64 C 1388.88 141.313 1385.83 140.15 1381.89 140.15 C 1377.37 140.15 1374.06 141.582 1371.96 144.446 z"/>
<path id="D" style="fill-rule:evenodd;fill:#000000;stroke:none;" d="M 1475.19 222.371 L 1432.57 222.371 L 1432.57 123.438 L 1475.19 123.438 C 1481.32 123.527 1486.42 124.243 1490.49 125.585 C 1497.43 127.867 1503.04 132.051 1507.34 138.137 C 1510.78 143.059 1513.13 148.383 1514.39 154.111 C 1515.64 159.838 1516.26 165.297 1516.26 170.488 C 1516.26 183.643 1513.62 194.785 1508.34 203.913 C 1501.19 216.218 1490.13 222.371 1475.19 222.371 zM 1490.56 148.674 C 1487.38 143.305 1481.09 140.62 1471.7 140.62 L 1452.64 140.62 L 1452.64 205.188 L 1471.7 205.188 C 1481.45 205.188 1488.25 200.378 1492.1 190.758 C 1494.21 185.478 1495.26 179.191 1495.26 171.897 C 1495.26 161.83 1493.69 154.088 1490.56 148.674 z"/>
</g>
<g id="AUDIOROO">
<path id="A" style="fill-rule:evenodd;fill:#000000;stroke:none;" d="M 1210.63 321.044 L 1186.37 321.044 L 1181.81 334.583 L 1167.43 334.583 L 1190.93 268.721 L 1206.48 268.721 L 1229.8 334.583 L 1214.88 334.583 L 1210.63 321.044 zM 1206.79 309.695 L 1198.57 283.779 L 1190.08 309.695 L 1206.79 309.695 z"/>
<path id="U" style="fill-rule:evenodd;fill:#000000;stroke:none;" d="M 1277.12 309.203 L 1277.12 268.721 L 1291.11 268.721 L 1291.11 309.203 C 1291.11 316.203 1290.02 321.655 1287.85 325.557 C 1283.79 332.706 1276.06 336.281 1264.66 336.281 C 1253.25 336.281 1245.5 332.706 1241.42 325.557 C 1239.25 321.655 1238.16 316.203 1238.16 309.203 L 1238.16 268.721 L 1252.14 268.721 L 1252.14 309.203 C 1252.14 313.731 1252.68 317.037 1253.75 319.123 C 1255.42 322.816 1259.05 324.663 1264.66 324.663 C 1270.23 324.663 1273.84 322.816 1275.51 319.123 C 1276.59 317.037 1277.12 313.731 1277.12 309.203 z"/>
<path id="D" style="fill-rule:evenodd;fill:#000000;stroke:none;" d="M 1332.62 334.583 L 1304.24 334.583 L 1304.24 268.721 L 1332.62 268.721 C 1336.7 268.781 1340.09 269.257 1342.8 270.151 C 1347.42 271.67 1351.16 274.455 1354.02 278.506 C 1356.31 281.783 1357.88 285.328 1358.71 289.141 C 1359.55 292.954 1359.96 296.588 1359.96 300.043 C 1359.96 308.801 1358.2 316.218 1354.69 322.295 C 1349.92 330.487 1342.57 334.583 1332.62 334.583 zM 1342.85 285.522 C 1340.73 281.947 1336.55 280.16 1330.29 280.16 L 1317.6 280.16 L 1317.6 323.144 L 1330.29 323.144 C 1336.79 323.144 1341.31 319.942 1343.88 313.537 C 1345.28 310.022 1345.98 305.837 1345.98 300.982 C 1345.98 294.279 1344.93 289.126 1342.85 285.522 z"/>
<path id="I" style="fill-rule:evenodd;fill:#000000;stroke:none;" d="M 1369.26 268.721 L 1382.93 268.721 L 1382.93 334.583 L 1369.26 334.583 L 1369.26 268.721 z"/>
<path id="O" style="fill-rule:evenodd;fill:#000000;stroke:none;" d="M 1424.89 336.415 C 1415.47 336.415 1408.28 333.853 1403.3 328.729 C 1396.63 322.444 1393.3 313.388 1393.3 301.562 C 1393.3 289.498 1396.63 280.443 1403.3 274.396 C 1408.28 269.272 1415.47 266.71 1424.89 266.71 C 1434.3 266.71 1441.49 269.272 1446.47 274.396 C 1453.11 280.443 1456.43 289.498 1456.43 301.562 C 1456.43 313.388 1453.11 322.444 1446.47 328.729 C 1441.49 333.853 1434.3 336.415 1424.89 336.415 zM 1437.89 318.721 C 1441.08 314.699 1442.67 308.98 1442.67 301.562 C 1442.67 294.175 1441.07 288.463 1437.87 284.427 C 1434.66 280.391 1430.34 278.372 1424.89 278.372 C 1419.43 278.372 1415.09 280.383 1411.84 284.404 C 1408.59 288.426 1406.97 294.145 1406.97 301.562 C 1406.97 308.98 1408.59 314.699 1411.84 318.721 C 1415.09 322.742 1419.43 324.753 1424.89 324.753 C 1430.34 324.753 1434.67 322.742 1437.89 318.721 z"/>
<path id="R" style="fill-rule:evenodd;fill:#000000;stroke:none;" d="M 1494.9 308.756 L 1480.69 308.756 L 1480.69 334.583 L 1467.24 334.583 L 1467.24 268.721 L 1499.55 268.721 C 1504.17 268.81 1507.72 269.376 1510.21 270.419 C 1512.69 271.462 1514.8 272.996 1516.53 275.021 C 1517.96 276.689 1519.09 278.536 1519.93 280.562 C 1520.76 282.587 1521.18 284.896 1521.18 287.488 C 1521.18 290.615 1520.39 293.691 1518.81 296.714 C 1517.23 299.738 1514.62 301.875 1510.99 303.126 C 1514.03 304.348 1516.18 306.083 1517.45 308.332 C 1518.71 310.581 1519.34 314.014 1519.34 318.631 L 1519.34 323.055 C 1519.34 326.063 1519.46 328.104 1519.7 329.176 C 1520.06 330.874 1520.89 332.125 1522.2 332.929 L 1522.2 334.583 L 1507.06 334.583 C 1506.64 333.123 1506.34 331.946 1506.16 331.053 C 1505.81 329.206 1505.61 327.314 1505.58 325.378 L 1505.49 319.257 C 1505.43 315.057 1504.67 312.256 1503.19 310.856 C 1501.72 309.456 1498.95 308.756 1494.9 308.756 zM 1503.26 296.781 C 1506 295.53 1507.37 293.058 1507.37 289.364 C 1507.37 285.373 1506.04 282.692 1503.39 281.321 C 1501.9 280.547 1499.67 280.16 1496.69 280.16 L 1480.69 280.16 L 1480.69 297.854 L 1496.29 297.854 C 1499.39 297.854 1501.71 297.496 1503.26 296.781 z"/>
<path id="O" style="fill-rule:evenodd;fill:#000000;stroke:none;" d="M 1562.15 336.415 C 1552.74 336.415 1545.54 333.853 1540.57 328.729 C 1533.9 322.444 1530.56 313.388 1530.56 301.562 C 1530.56 289.498 1533.9 280.443 1540.57 274.396 C 1545.54 269.272 1552.74 266.71 1562.15 266.71 C 1571.56 266.71 1578.76 269.272 1583.73 274.396 C 1590.37 280.443 1593.7 289.498 1593.7 301.562 C 1593.7 313.388 1590.37 322.444 1583.73 328.729 C 1578.76 333.853 1571.56 336.415 1562.15 336.415 zM 1575.15 318.721 C 1578.34 314.699 1579.93 308.98 1579.93 301.562 C 1579.93 294.175 1578.33 288.463 1575.13 284.427 C 1571.93 280.391 1567.6 278.372 1562.15 278.372 C 1556.7 278.372 1552.35 280.383 1549.1 284.404 C 1545.86 288.426 1544.23 294.145 1544.23 301.562 C 1544.23 308.98 1545.86 314.699 1549.1 318.721 C 1552.35 322.742 1556.7 324.753 1562.15 324.753 C 1567.6 324.753 1571.94 322.742 1575.15 318.721 z"/>
<path id="O" style="fill-rule:evenodd;fill:#000000;stroke:none;" d="M 1633.33 336.415 C 1623.92 336.415 1616.72 333.853 1611.75 328.729 C 1605.07 322.444 1601.74 313.388 1601.74 301.562 C 1601.74 289.498 1605.07 280.443 1611.75 274.396 C 1616.72 269.272 1623.92 266.71 1633.33 266.71 C 1642.74 266.71 1649.94 269.272 1654.91 274.396 C 1661.55 280.443 1664.87 289.498 1664.87 301.562 C 1664.87 313.388 1661.55 322.444 1654.91 328.729 C 1649.94 333.853 1642.74 336.415 1633.33 336.415 zM 1646.33 318.721 C 1649.52 314.699 1651.11 308.98 1651.11 301.562 C 1651.11 294.175 1649.51 288.463 1646.31 284.427 C 1643.11 280.391 1638.78 278.372 1633.33 278.372 C 1627.88 278.372 1623.53 280.383 1620.28 284.404 C 1617.03 288.426 1615.41 294.145 1615.41 301.562 C 1615.41 308.98 1617.03 314.699 1620.28 318.721 C 1623.53 322.742 1627.88 324.753 1633.33 324.753 C 1638.78 324.753 1643.11 322.742 1646.33 318.721 z"/>
<path id="M" style="fill-rule:evenodd;fill:#000000;stroke:none;" d="M 1687.98 334.583 L 1675.15 334.583 L 1675.15 268.721 L 1695.17 268.721 L 1707.14 320.508 L 1719.03 268.721 L 1738.82 268.721 L 1738.82 334.583 L 1726 334.583 L 1726 290.034 C 1726 288.754 1726.01 286.959 1726.04 284.65 C 1726.07 282.342 1726.09 280.562 1726.09 279.311 L 1713.62 334.583 L 1700.26 334.583 L 1687.89 279.311 C 1687.89 280.562 1687.9 282.342 1687.93 284.65 C 1687.96 286.959 1687.98 288.754 1687.98 290.034 L 1687.98 334.583 z"/>
</g>

</svg>