<?xml version="1.0" encoding="UTF-8" ?>
<!-- Sure Cuts A Lot -->
<!DOCTYPE svg PUBLIC "-//W3C//DTD SVG 1.1//EN" "http://www.w3.org/Graphics/SVG/1.1/DTD/svg11.dtd">
<svg version="1.1" xmlns="http://www.w3.org/2000/svg" xmlns:xlink="http://www.w3.org/1999/xlink" xmlns:scal="http://www.craftedge.com/namespaces/surecutsalot" scal:dpi="150" x="0px" y="0px" width="1800px" height="450px" viewBox="0 0 1800 450" xml:space="preserve">
<g id="ENTREMOT">
<path id="E" style="fill-rule:evenodd;fill:#000000;stroke:none;" d="M 283.731 208.008 L 234.815 208.008 L 234.815 275.756 L 290.563 275.756 L 290.563 323.126 L 214.251 323.126 L 214.251 59.6416 L 288.104 59.6416 L 288.104 106.297 L 234.815 106.297 L 234.815 162.247 L 283.731 162.247 L 283.731 208.008 z"/>
<path id="N" style="fill-rule:evenodd;fill:#000000;stroke:none;" d="M 388.397 323.126 L 367.355 323.126 L 326.226 135.97 L 326.226 323.126 L 306.618 323.126 L 306.618 59.6416 L 328.686 59.6416 L 368.789 243.58 L 368.789 59.6416 L 388.397 59.6416 L 388.397 323.126 z"/>
<path id="T" style="fill-rule:evenodd;fill:#000000;stroke:none;" d="M 481.175 59.6416 L 481.175 106.297 L 451.046 106.297 L 451.046 323.126 L 429.867 323.126 L 429.867 106.297 L 399.601 106.297 L 399.601 59.6416 L 481.175 59.6416 z"/>
<path id="R" style="fill-rule:evenodd;fill:#000000;stroke:none;" d="M 536.24 219.806 L 514.515 219.806 L 514.515 323.126 L 493.951 323.126 L 493.951 59.6416 L 543.346 59.6416 C 550.405 59.9991 555.837 62.2633 559.64 66.4342 C 563.443 70.6052 566.665 76.7424 569.307 84.846 C 571.493 91.5195 573.224 98.908 574.499 107.012 C 575.775 115.115 576.412 124.351 576.412 134.718 C 576.412 147.231 575.205 159.536 572.791 171.631 C 570.377 183.727 566.392 192.277 560.835 197.283 C 565.481 202.169 568.772 209.11 570.707 218.107 C 572.643 227.105 573.611 240.839 573.611 259.31 L 573.611 277.007 C 573.611 289.043 573.793 297.206 574.158 301.497 C 574.704 308.289 575.979 313.294 577.983 316.512 L 577.983 323.126 L 554.823 323.126 C 554.186 317.286 553.73 312.579 553.457 309.004 C 552.91 301.616 552.614 294.048 552.569 286.302 L 552.432 261.813 C 552.341 245.01 551.168 233.808 548.914 228.207 C 546.659 222.606 542.435 219.806 536.24 219.806 zM 549.016 171.899 C 553.206 166.894 555.301 157.003 555.301 142.226 C 555.301 126.257 553.275 115.532 549.221 110.05 C 546.944 106.952 543.528 105.403 538.973 105.403 L 514.515 105.403 L 514.515 176.19 L 538.358 176.19 C 543.095 176.19 546.648 174.76 549.016 171.899 z"/>
<path id="E" style="fill-rule:evenodd;fill:#000000;stroke:none;" d="M 664.613 208.008 L 615.696 208.008 L 615.696 275.756 L 671.445 275.756 L 671.445 323.126 L 595.132 323.126 L 595.132 59.6416 L 668.985 59.6416 L 668.985 106.297 L 615.696 106.297 L 615.696 162.247 L 664.613 162.247 L 664.613 208.008 z"/>
<path id="M" style="fill-rule:evenodd;fill:#000000;stroke:none;" d="M 707.107 323.126 L 687.5 323.126 L 687.5 59.6416 L 718.107 59.6416 L 736.416 266.818 L 754.589 59.6416 L 784.855 59.6416 L 784.855 323.126 L 765.247 323.126 L 765.247 144.907 C 765.247 139.783 765.27 132.603 765.316 123.368 C 765.361 114.132 765.384 107.012 765.384 102.006 L 746.323 323.126 L 725.895 323.126 L 706.971 102.006 C 706.971 107.012 706.993 114.132 707.039 123.368 C 707.085 132.603 707.107 139.783 707.107 144.907 L 707.107 323.126 z"/>
<path id="O" style="fill-rule:evenodd;fill:#000000;stroke:none;" d="M 848.939 330.455 C 834.546 330.455 823.547 320.206 815.94 299.709 C 805.738 274.564 800.637 238.337 800.637 191.026 C 800.637 142.762 805.738 106.535 815.94 82.3434 C 823.547 61.8462 834.546 51.5976 848.939 51.5976 C 863.331 51.5976 874.331 61.8462 881.937 82.3434 C 892.094 106.535 897.172 142.762 897.172 191.026 C 897.172 238.337 892.094 274.564 881.937 299.709 C 874.331 320.206 863.331 330.455 848.939 330.455 zM 868.82 259.668 C 873.693 243.58 876.13 220.699 876.13 191.026 C 876.13 161.472 873.682 138.621 868.785 122.474 C 863.889 106.326 857.274 98.2526 848.939 98.2526 C 840.604 98.2526 833.954 106.297 828.989 122.384 C 824.025 138.472 821.542 161.353 821.542 191.026 C 821.542 220.699 824.025 243.58 828.989 259.668 C 833.954 275.756 840.604 283.8 848.939 283.8 C 857.274 283.8 863.901 275.756 868.82 259.668 z"/>
<path id="T" style="fill-rule:evenodd;fill:#000000;stroke:none;" d="M 986.397 59.6416 L 986.397 106.297 L 956.268 106.297 L 956.268 323.126 L 935.089 323.126 L 935.089 106.297 L 904.824 106.297 L 904.824 59.6416 L 986.397 59.6416 z"/>
<path id="I" style="fill-rule:evenodd;fill:#000000;stroke:none;" d="M 997.055 59.6416 L 1017.96 59.6416 L 1017.96 323.126 L 997.055 323.126 L 997.055 59.6416 z"/>
<path id="V" style="fill-rule:evenodd;fill:#000000;stroke:none;" d="M 1030.12 59.6416 L 1052.6 59.6416 L 1074.46 259.668 L 1096.53 59.6416 L 1118.39 59.6416 L 1084.03 323.126 L 1064.14 323.126 L 1030.12 59.6416 z"/>
<path id="A" style="fill-rule:evenodd;fill:#000000;stroke:none;" d="M 1189.85 268.963 L 1152.76 268.963 L 1145.79 323.126 L 1123.79 323.126 L 1159.72 59.6416 L 1183.5 59.6416 L 1219.16 323.126 L 1196.34 323.126 L 1189.85 268.963 zM 1183.98 223.56 L 1171.41 119.882 L 1158.43 223.56 L 1183.98 223.56 z"/>
<path id="T" style="fill-rule:evenodd;fill:#000000;stroke:none;" d="M 1305.11 59.6416 L 1305.11 106.297 L 1274.98 106.297 L 1274.98 323.126 L 1253.8 323.126 L 1253.8 106.297 L 1223.53 106.297 L 1223.53 59.6416 L 1305.11 59.6416 z"/>
<path id="O" style="fill-rule:evenodd;fill:#000000;stroke:none;" d="M 1361.95 330.455 C 1347.56 330.455 1336.56 320.206 1328.95 299.709 C 1318.75 274.564 1313.65 238.337 1313.65 191.026 C 1313.65 142.762 1318.75 106.535 1328.95 82.3434 C 1336.56 61.8462 1347.56 51.5976 1361.95 51.5976 C 1376.34 51.5976 1387.34 61.8462 1394.95 82.3434 C 1405.1 106.535 1410.18 142.762 1410.18 191.026 C 1410.18 238.337 1405.1 274.564 1394.95 299.709 C 1387.34 320.206 1376.34 330.455 1361.95 330.455 zM 1381.83 259.668 C 1386.7 243.58 1389.14 220.699 1389.14 191.026 C 1389.14 161.472 1386.69 138.621 1381.8 122.474 C 1376.9 106.326 1370.28 98.2526 1361.95 98.2526 C 1353.61 98.2526 1346.96 106.297 1342 122.384 C 1337.04 138.472 1334.55 161.353 1334.55 191.026 C 1334.55 220.699 1337.04 243.58 1342 259.668 C 1346.96 275.756 1353.61 283.8 1361.95 283.8 C 1370.28 283.8 1376.91 275.756 1381.83 259.668 z"/>
<path id="R" style="fill-rule:evenodd;fill:#000000;stroke:none;" d="M 1469.01 219.806 L 1447.28 219.806 L 1447.28 323.126 L 1426.72 323.126 L 1426.72 59.6416 L 1476.11 59.6416 C 1483.17 59.9991 1488.6 62.2633 1492.41 66.4342 C 1496.21 70.6052 1499.43 76.7424 1502.07 84.846 C 1504.26 91.5195 1505.99 98.908 1507.27 107.012 C 1508.54 115.115 1509.18 124.351 1509.18 134.718 C 1509.18 147.231 1507.97 159.536 1505.56 171.631 C 1503.14 183.727 1499.16 192.277 1493.6 197.283 C 1498.25 202.169 1501.54 209.11 1503.47 218.107 C 1505.41 227.105 1506.38 240.839 1506.38 259.31 L 1506.38 277.007 C 1506.38 289.043 1506.56 297.206 1506.92 301.497 C 1507.47 308.289 1508.75 313.294 1510.75 316.512 L 1510.75 323.126 L 1487.59 323.126 C 1486.95 317.286 1486.5 312.579 1486.22 309.004 C 1485.68 301.616 1485.38 294.048 1485.33 286.302 L 1485.2 261.813 C 1485.11 245.01 1483.93 233.808 1481.68 228.207 C 1479.42 222.606 1475.2 219.806 1469.01 219.806 zM 1481.78 171.899 C 1485.97 166.894 1488.07 157.003 1488.07 142.226 C 1488.07 126.257 1486.04 115.532 1481.99 110.05 C 1479.71 106.952 1476.29 105.403 1471.74 105.403 L 1447.28 105.403 L 1447.28 176.19 L 1471.12 176.19 C 1475.86 176.19 1479.41 174.76 1481.78 171.899 z"/>
</g>

</svg>